<svg width="45" height="27" viewBox="0 0 45 27" fill="none" xmlns="http://www.w3.org/2000/svg">
<g clip-path="url(#clip0_15011_2518)">
<path d="M0.318237 18.0182H4.04207L6.31721 6.89932H9.10985L9.5216 4.83079H6.78257L6.88636 4.36543C7.04132 3.48832 7.35172 2.50351 8.74779 2.50351C9.57618 2.50351 10.3514 2.55516 11.1267 2.91722L11.5409 0.745386C10.6769 0.440527 9.7678 0.283052 8.85158 0.279541C5.85185 0.279541 3.78381 2.03815 3.00757 4.83079H1.7148L1.30109 6.89932H2.59386L0.318237 18.0182Z" fill="#EA1D2C"/>
<path d="M12.1095 15.3293C16.5053 15.3293 19.5567 11.3467 19.5567 8.08872C19.5567 5.65814 17.3327 4.62363 15.1609 4.62363C10.3499 4.62363 7.71369 8.91857 7.71369 11.8642C7.71369 14.2948 9.98932 15.3293 12.1095 15.3293ZM23.9018 15.3293C28.2976 15.3293 31.349 11.3467 31.349 8.08872C31.349 5.65814 29.0734 4.62363 26.9011 4.62363C22.0915 4.62363 19.4544 8.91613 19.4544 11.8642C19.4544 14.2948 21.7816 15.3293 23.9018 15.3293ZM37.3996 15.1222H41.0713L44.0701 0.488525H40.3467L39.4672 4.83268L37.9157 4.67772C34.2956 4.67772 30.986 9.33179 30.986 12.6419C30.986 13.9863 31.8631 15.3312 33.3649 15.3312C35.4851 15.3312 36.985 14.2967 37.6043 13.2622H37.8109L37.3996 15.1222ZM25.9177 22.8281C23.0276 25.2228 19.3154 26.3921 15.5746 26.0861C10.6613 25.7757 7.14455 22.0002 6.52423 18.0181H6.73084C7.86865 20.5033 10.6096 22.8281 13.9714 23.1897C17.3824 23.6034 21.4703 22.0524 23.6937 19.9317L21.2115 18.0181H28.7104L27.0536 25.9828L25.9674 22.8798L25.9177 22.8281Z" fill="#EA1D2C"/>
</g>
<defs>
<clipPath id="clip0_15011_2518">
<rect width="44.0267" height="26" fill="white" transform="translate(0 0.279541)"/>
</clipPath>
</defs>
</svg>
