<svg width="12" height="14" viewBox="0 0 12 14" fill="none" xmlns="http://www.w3.org/2000/svg">
<path d="M5.40008 13.044C5.08736 13.0441 4.77542 13.0127 4.46901 12.9502C3.87813 12.8292 3.31687 12.593 2.81725 12.2551C2.07447 11.7536 1.49305 11.0476 1.14345 10.2224C1.02526 9.94293 0.935031 9.65248 0.87408 9.35526C0.748923 8.74085 0.748923 8.10752 0.87408 7.49312C0.99511 6.90224 1.2313 6.34098 1.56918 5.84135C2.07062 5.09858 2.77671 4.51716 3.6019 4.16756C3.88134 4.04937 4.17179 3.95914 4.46901 3.89819C5.08341 3.77303 5.71674 3.77303 6.33115 3.89819C6.92203 4.01922 7.48329 4.25541 7.98291 4.59329C8.72569 5.09473 9.30711 5.80082 9.65671 6.62601C9.7749 6.90545 9.86513 7.1959 9.92608 7.49312C10.0491 8.09773 10.0511 8.72075 9.93177 9.32612C9.82943 9.84681 9.63702 10.3457 9.36317 10.8002C8.95305 11.485 8.37232 12.0517 7.67769 12.445C6.98307 12.8383 6.19831 13.0447 5.40008 13.044ZM6.99143 6.25998C6.91657 6.25992 6.84243 6.27465 6.77328 6.30331C6.70412 6.33197 6.64131 6.37401 6.58844 6.42701L4.97363 8.03968C4.86666 8.14684 4.80664 8.29211 4.80677 8.44352C4.8069 8.59494 4.86718 8.74011 4.97435 8.84708C5.08151 8.95405 5.22678 9.01408 5.37819 9.01394C5.52961 9.01381 5.67477 8.95353 5.78175 8.84637L6.58844 8.03968L7.39513 7.2337C7.47577 7.15429 7.53088 7.05262 7.5534 6.94171C7.57592 6.8308 7.56483 6.7157 7.52155 6.61112C7.47828 6.50655 7.40477 6.41727 7.31046 6.35472C7.21615 6.29216 7.10531 6.25918 6.99214 6.25998H6.99143Z" fill="#EA1D2C"/>
<path d="M3.13873 1.56036C3.13873 1.40013 3.20238 1.24647 3.31568 1.13318C3.42897 1.01988 3.58264 0.95623 3.74286 0.95623L7.36764 0.95623C7.52787 0.95623 7.68153 1.01988 7.79483 1.13318C7.90812 1.24647 7.97177 1.40013 7.97177 1.56036C7.97177 1.72059 7.90812 1.87425 7.79483 1.98754C7.68153 2.10084 7.52787 2.16449 7.36764 2.16449H3.74286C3.58264 2.16449 3.42897 2.10084 3.31568 1.98754C3.20238 1.87425 3.13873 1.72059 3.13873 1.56036V1.56036Z" fill="#EA1D2C"/>
<path d="M9.33945 2.68863C9.45648 2.5716 9.6152 2.50585 9.78071 2.50585C9.94621 2.50585 10.1049 2.5716 10.222 2.68863L11.019 3.4857C11.1361 3.60273 11.2018 3.76146 11.2018 3.92696C11.2018 4.09246 11.1361 4.25119 11.019 4.36821C10.902 4.48524 10.7433 4.55099 10.5778 4.55099C10.4123 4.55099 10.2536 4.48524 10.1365 4.36821L9.33945 3.57114C9.22242 3.45411 9.15668 3.29539 9.15668 3.12988C9.15668 2.96438 9.22242 2.80565 9.33945 2.68863Z" fill="#EA1D2C"/>
</svg>
